<svg width="24" height="24" viewBox="0 0 24 24" fill="none" xmlns="http://www.w3.org/2000/svg">
<path d="M7.97001 6.1003C12.5626 1.73949 18.1342 0.607715 20.3638 3.58004C22.5934 6.55236 20.6339 12.5599 16.0413 16.9207C11.4487 21.3139 5.8771 22.4441 3.61372 19.4394C1.41953 16.4364 3.3791 10.4595 7.97001 6.1003Z" fill="#F06321"/>
<path d="M11.4175 3.79472C10.93 4.15554 10.4425 4.58195 9.955 5.04281C6.08582 8.91338 4.45915 14.2288 6.37832 16.8874C8.36084 19.5443 13.1075 18.5602 17.0742 14.6552C19.2209 12.556 20.6509 10.127 21.2359 7.86373C21.3984 6.19087 21.171 4.71317 20.4234 3.59791C18.7334 1.23622 15.0917 1.43139 11.4175 3.79472Z" fill="#AE282E"/>
<path d="M17 4.16523V4.26241C16.9665 4.81311 16.631 5.49339 16.0271 6.07648C15.1214 6.91874 13.9137 7.24268 13.4089 6.75838C12.8386 6.24008 13.1758 5.10466 14.0815 4.19762C15.0208 3.32297 16.2284 3.03143 16.7316 3.54974C16.8993 3.71171 17 3.90608 17 4.16523ZM13.5112 19.0391C11.3626 20.594 9.1486 21.373 7 21.0491C7.90574 21.0815 8.64541 20.1081 9.24923 18.8122C9.85307 17.4841 10.1885 16.2532 10.4904 15.0853C10.9265 13.2389 10.96 11.9431 10.7252 11.6515C10.3562 11.1964 9.55115 11.2952 8.61019 11.8135C8.14055 12.0727 7.53673 11.9107 8.24286 11.0684C8.98088 10.2262 11.8322 8.21612 12.8386 7.89218C13.9808 7.60064 15.2556 8.02176 14.8195 9.22035C14.5159 10.095 10.5575 20.0757 13.5112 19.0391Z" fill="white"/>
</svg>
