<svg width="24" height="24" viewBox="0 0 24 24" fill="none" xmlns="http://www.w3.org/2000/svg">
<g clip-path="url(#clip0_2559_8013)">
<path d="M14.7578 0.32445C12.4487 -0.220746 10.0299 -0.0690155 7.80708 0.760455C5.58428 1.58992 3.65735 3.05988 2.26996 4.98445C0.882555 6.90903 0.0969924 9.20178 0.0125991 11.5728C-0.0717942 13.9438 0.548772 16.2866 1.79583 18.305C3.04289 20.3233 4.86043 21.9265 7.01863 22.9119C9.17683 23.8974 11.5788 24.2207 13.9207 23.841C16.2627 23.4614 18.4394 22.3958 20.1758 20.7791C21.9122 19.1623 23.1302 17.067 23.6757 14.758C24.038 13.2248 24.0947 11.6351 23.8426 10.0799C23.5905 8.52469 23.0345 7.03438 22.2064 5.69407C21.3782 4.35375 20.2942 3.18969 19.0162 2.26837C17.7381 1.34704 16.2911 0.686496 14.7578 0.32445Z" fill="#5F259F"/>
<path d="M17.4453 8.86937C17.4388 8.6413 17.3447 8.42452 17.1824 8.2641C17.0202 8.10368 16.8024 8.01197 16.5743 8.00804H14.9649L11.2793 3.77562C11.1069 3.58191 10.883 3.44123 10.6336 3.36999C10.3843 3.29875 10.1198 3.29989 9.87113 3.37328L8.59378 3.77562C8.54839 3.79101 8.5074 3.81716 8.47432 3.85184C8.44123 3.88651 8.41704 3.92868 8.40379 3.97475C8.39055 4.02081 8.38866 4.06939 8.39827 4.11634C8.40789 4.1633 8.42873 4.20722 8.45902 4.24437L12.4844 8.06468H6.38675C6.34246 8.06272 6.29825 8.07004 6.25695 8.08615C6.21564 8.10227 6.17816 8.12684 6.14691 8.15828C6.11565 8.18972 6.0913 8.22734 6.07543 8.26874C6.05955 8.31013 6.0525 8.35439 6.05472 8.39867V9.06859C6.05873 9.29836 6.1518 9.5176 6.3143 9.6801C6.4768 9.8426 6.69604 9.93567 6.92581 9.93968H7.86527V13.1584C7.86527 15.5705 9.1387 16.9787 11.2832 16.9787C11.9254 16.9985 12.5647 16.8841 13.1602 16.6428V18.7912C13.1584 18.9326 13.1848 19.0728 13.2381 19.2037C13.2913 19.3347 13.3702 19.4536 13.4702 19.5535C13.5701 19.6535 13.689 19.7324 13.82 19.7856C13.9509 19.8389 14.0911 19.8653 14.2325 19.8635H15.17C15.2743 19.8562 15.3724 19.8115 15.4464 19.7376C15.5203 19.6636 15.565 19.5655 15.5723 19.4612V9.87523H17.1094C17.1542 9.87778 17.199 9.87084 17.2409 9.85485C17.2828 9.83887 17.3209 9.81422 17.3526 9.7825C17.3843 9.75078 17.409 9.71272 17.425 9.6708C17.441 9.62889 17.4479 9.58408 17.4453 9.53929V8.86937ZM13.1485 14.633C12.7257 14.818 12.268 14.9092 11.8067 14.9006C10.7344 14.9006 10.1993 14.3655 10.1993 13.1584V9.94164H13.1485V14.6291V14.633Z" fill="white"/>
</g>
<defs>
<clipPath id="clip0_2559_8013">
<rect width="24" height="24" fill="white"/>
</clipPath>
</defs>
</svg>
