<svg width="530" height="60" viewBox="0 0 530 60" fill="none" xmlns="http://www.w3.org/2000/svg">
<path d="M0.5 20C0.5 15.2718 0.501062 11.776 0.861658 9.09391C1.22032 6.42621 1.9264 4.63857 3.28249 3.28249C4.63857 1.9264 6.42621 1.22032 9.09391 0.861658C11.776 0.501062 15.2718 0.5 20 0.5H510C514.728 0.5 518.224 0.501062 520.906 0.861658C523.574 1.22032 525.361 1.9264 526.717 3.28248C528.074 4.63857 528.78 6.42621 529.138 9.09391C529.499 11.776 529.5 15.2718 529.5 20V40C529.5 44.7282 529.499 48.224 529.138 50.9061C528.78 53.5738 528.074 55.3614 526.717 56.7175C525.361 58.0736 523.574 58.7797 520.906 59.1383C518.224 59.4989 514.728 59.5 510 59.5H20C15.2718 59.5 11.776 59.4989 9.0939 59.1383C6.42621 58.7797 4.63857 58.0736 3.28249 56.7175C1.9264 55.3614 1.22032 53.5738 0.861658 50.9061C0.501062 48.224 0.5 44.7282 0.5 40V20Z" stroke="#DEE2E6"/>
</svg>
