<svg width="80" height="80" viewBox="0 0 80 80" fill="none" xmlns="http://www.w3.org/2000/svg">
<g clip-path="url(#clip0_2559_4845)">
<path d="M67.3285 66.1055H59.9199L62.0173 75.3307C62.4596 77.276 64.3955 78.4943 66.3405 78.052C68.2857 77.6097 69.5041 75.6742 69.062 73.729L67.3285 66.1055Z" fill="#0065CA"/>
<path d="M58.485 45.3866C58.485 43.4163 58.4811 43.5195 58.4959 43.2996L53.586 41.1107C51.1394 40.0199 50.0421 37.5225 50.1364 36.0396L50.9173 23.7574L53.0204 36.2229C53.1882 37.217 53.8423 38.061 54.7629 38.4715L65.7469 43.3683C67.0833 43.9642 68.6315 43.509 69.4449 42.3334C70.5308 40.7632 69.9037 38.6303 68.1982 37.8698L58.6883 33.63L56.7838 22.3413L60.8563 31.4042L61.6123 22.6109C61.8245 20.1413 59.9946 17.9672 57.5251 17.755L49.5509 17.0695C47.0963 16.8585 44.9343 18.6654 44.6999 21.1124L37.4216 27.3855C37.1852 27.5892 36.982 27.8285 36.8194 28.0946L29.8941 39.427C29.3103 40.3823 29.3256 41.5338 29.8308 42.4483L28.2634 44.8338L20.3685 39.6461C19.0455 38.7768 17.2661 39.1467 16.3995 40.472L0.467244 64.8361C-0.396901 66.1575 -0.0283173 67.9291 1.29138 68.7962L6.49712 72.2168C6.38545 72.8407 6.39206 73.4862 6.52443 74.1256C7.07791 76.8009 9.72114 78.6078 12.4771 78.0371C15.2028 77.4732 16.9528 74.8108 16.3885 72.0843C16.2568 71.4481 16.0057 70.8602 15.6627 70.3408C27.4766 52.2742 24.5951 56.6674 32.9483 43.9569C33.7793 43.819 34.5482 43.3358 35.0219 42.5607L41.7016 31.6302L43.9618 29.682C43.9618 29.682 42.9354 44.2099 42.9427 44.2568L45.0991 57.9925L39.3426 73.2547C38.6387 75.1213 39.5811 77.2051 41.4477 77.9091C43.3146 78.613 45.3981 77.6702 46.102 75.804L52.195 59.6491C52.3968 59.1144 52.4885 58.4809 52.3838 57.8142L50.3332 44.7531L52.2383 44.9169L53.3135 47.2958C54.1641 46.1389 55.5337 45.3862 57.0764 45.3862C57.6191 45.3866 57.9558 45.3866 58.485 45.3866ZM11.781 74.6744C10.8954 74.8581 10.0619 74.2751 9.88691 73.4299C9.70757 72.5624 10.264 71.7153 11.1315 71.5358C12.0203 71.3521 12.8512 71.938 13.0255 72.7804C13.205 73.6478 12.6488 74.4947 11.781 74.6744Z" fill="#0065CA"/>
<path d="M55.4593 15.1457C59.1286 15.1457 62.1032 12.1711 62.1032 8.5018C62.1032 4.83248 59.1286 1.85791 55.4593 1.85791C51.79 1.85791 48.8154 4.83248 48.8154 8.5018C48.8154 12.1711 51.79 15.1457 55.4593 15.1457Z" fill="#0065CA"/>
<path d="M77.9069 47.9625H73.9229V43.5915C73.9229 42.8225 73.4173 42.1718 72.7205 41.9531C72.6354 42.3161 72.5161 42.6738 72.3609 43.0218C71.94 43.9662 71.2873 44.7609 70.4888 45.3537V47.9625C70.2239 47.9625 65.4111 47.9625 64.4944 47.9625V45.9741L61.0604 44.4433C61.0604 45.665 61.0604 46.756 61.0604 47.9625H57.0764C55.9203 47.9625 54.9834 48.8997 54.9834 50.0555V61.4369C54.9834 62.5929 55.9204 63.53 57.0764 63.53H77.9069C79.0629 63.53 79.9999 62.5928 79.9999 61.4369V50.0557C79.9999 48.8786 79.0356 47.9625 77.9069 47.9625Z" fill="#0065CA"/>
</g>
<defs>
<clipPath id="clip0_2559_4845">
<rect width="80" height="80" fill="white"/>
</clipPath>
</defs>
</svg>
